<svg id="Capa_1" enable-background="new 0 0 511.993 511.993" height="512" viewBox="0 0 511.993 511.993" width="512" xmlns="http://www.w3.org/2000/svg"><g><g><g><path d="m402.61 478.961c0 14.095-11.426 25.531-25.531 25.531h-236.757c-7.048 0-13.425-2.859-18.054-7.477-4.618-4.629-7.477-11.006-7.477-18.054 0-14.105 11.436-25.531 25.531-25.531h7.487v-42.365l-4.998-34.278v-57.28c0-44.815 36.327-81.132 81.132-81.132h69.516c44.814 0 81.132 36.317 81.132 81.132v57.28l-4.998 34.278v42.365h7.487c7.048 0 13.435 2.859 18.054 7.477 4.617 4.619 7.476 11.007 7.476 18.054z" fill="#f4dd45"/><path d="m288.86 238.385c-44.624.2-80.732 36.447-80.732 81.122v184.986h-67.806c-7.048 0-13.425-2.859-18.054-7.477-4.618-4.629-7.477-11.006-7.477-18.054 0-14.105 11.436-25.531 25.531-25.531h7.487v-42.365l-4.998-34.278v-57.28c0-44.815 36.327-81.132 81.132-81.132h64.528c.129-.001.259-.001.389.009z" fill="#eab14d"/><path d="m163.563 430.295c-16.42 0-29.731-13.311-29.731-29.731 0-2.26.252-4.461.73-6.576 3.857-17.082 29.001-14.28 29.001 3.232h190.28c0-17.512 25.145-20.313 29.001-3.232.478 2.116.73 4.316.73 6.576 0 16.42-13.311 29.731-29.731 29.731" fill="#eaac9d"/><path d="m353.839 363.346v52.259c0 38.293-31.043 69.343-69.343 69.343h-51.594c-38.293 0-69.343-31.043-69.343-69.343v-51.663c11.807-.343 28.055-2.357 45.557-5.914 35.867-7.291 77.039-21.072 96.192-40.226 0 .001 18.947 38.719 48.531 45.544z" fill="#ffcbbe"/><path d="m278.459 484.948h-45.557c-38.293 0-69.343-31.043-69.343-69.343v-51.663c11.807-.343 28.055-2.357 45.557-5.914v57.577c-.001 38.293 31.042 69.343 69.343 69.343z" fill="#eaac9d"/><g fill="#e490b7"><ellipse cx="314.746" cy="420.533" rx="15.574" ry="9.47"/><ellipse cx="202.661" cy="420.533" rx="15.574" ry="9.47"/></g></g><path d="m501.091 203.086c-1.074 9.801-9.013 17.458-18.85 18.146-.814.057-1.622.115-2.431.167-5.998.407-10.661 5.388-10.661 11.402v22.731c0 7.646-8.752 11.986-14.834 7.355-11.099-8.455-25.866-21.031-34.926-34.07-2.144-3.088-5.685-4.887-9.446-4.866-27.895.141-55.789-.756-83.684-2.717-7.777-.542-14.38-5.43-17.322-12.304-.782-1.805-1.304-3.755-1.528-5.795-4.131-37.737-4.131-75.48 0-113.222 1.074-9.79 9.018-17.411 18.84-18.099 41.555-2.916 83.105-3.5 124.655-1.753 10.442.433 20.89 1.017 31.332 1.753 9.827.688 17.776 8.309 18.85 18.099 4.131 37.724 4.131 75.446.005 113.173z" fill="#80b4fb"/><path d="m10.901 282.394c1.074 9.801 9.013 17.458 18.85 18.146.814.057 1.622.115 2.431.167 5.998.407 10.661 5.388 10.661 11.402v22.731c0 7.646 8.752 11.986 14.834 7.354 11.099-8.455 25.866-21.031 34.926-34.07 2.144-3.088 5.685-4.887 9.446-4.866 27.895.141 55.789-.756 83.684-2.717 7.777-.542 14.38-5.43 17.322-12.304.782-1.805 1.304-3.755 1.528-5.795 4.131-37.737 4.131-75.48 0-113.222-1.075-9.79-9.018-17.411-18.84-18.099-41.555-2.916-83.105-3.5-124.655-1.753-10.442.433-20.89 1.017-31.332 1.753-9.827.688-17.776 8.309-18.85 18.099-4.131 37.726-4.131 75.448-.005 113.174z" fill="#90dfc3"/><path d="m79.712 141.501c1.074 9.801 9.013 17.458 18.85 18.146.814.057 1.622.115 2.431.167 5.998.407 10.661 5.388 10.661 11.402v22.731c0 7.646 8.752 11.986 14.834 7.354 11.099-8.455 25.866-21.031 34.926-34.07 2.144-3.088 5.685-4.887 9.446-4.867 27.895.141 55.789-.756 83.684-2.717 7.777-.542 14.38-5.43 17.322-12.304.782-1.805 1.304-3.755 1.528-5.795 4.131-37.737 4.131-75.48 0-113.222-1.074-9.79-9.018-17.411-18.84-18.099-41.555-2.916-83.105-3.5-124.655-1.753-10.442.433-20.89 1.017-31.332 1.753-9.827.688-17.776 8.309-18.85 18.099-4.131 37.727-4.131 75.449-.005 113.175z" fill="#dd636e"/></g><g><path d="m258.704 419.118c-10.513 0-19.947 6.262-24.033 15.953-1.395 3.308.156 7.12 3.464 8.515 3.308 1.394 7.12-.156 8.515-3.464 2.05-4.862 6.782-8.004 12.054-8.004s10.003 3.142 12.054 8.004c1.047 2.483 3.457 3.976 5.992 3.976.842 0 1.698-.165 2.522-.512 3.308-1.395 4.859-5.207 3.464-8.515-4.086-9.691-13.519-15.953-24.032-15.953z"/><path d="m249.439 411.291h18.529c3.59 0 6.5-2.91 6.5-6.5s-2.91-6.5-6.5-6.5h-18.529c-3.59 0-6.5 2.91-6.5 6.5s2.91 6.5 6.5 6.5z"/><path d="m377.096 445.923v-16.313c8.513-6.829 13.979-17.309 13.979-29.046 0-2.774-.307-5.542-.914-8.228-1.225-5.424-4.124-9.847-8.065-12.871v-59.962c0-48.871-39.759-88.63-88.63-88.63h-69.52c-2.951 0-5.896.148-8.814.436.214-20.708-.783-41.43-2.998-61.999 14.374-.455 28.721-1.18 42.932-2.179 10.485-.731 19.565-7.183 23.682-16.804 1.091-2.517 1.798-5.194 2.102-7.961 4.171-38.103 4.171-76.746 0-114.856-1.471-13.405-12.309-23.819-25.77-24.763-41.635-2.921-83.858-3.515-125.491-1.765-10.485.435-21.099 1.029-31.545 1.765-13.469.942-24.311 11.356-25.783 24.763-4.138 37.797-4.166 76.129-.093 113.95-3.755.12-7.559.259-11.391.419-10.589.437-21.205 1.029-31.546 1.762-13.473.945-24.315 11.361-25.78 24.765-4.169 38.073-4.172 76.697-.01 114.808 1.48 13.432 12.327 23.866 25.76 24.808.842.062 1.683.115 2.473.163 2.059.141 3.672 1.866 3.672 3.928v22.73c0 6.407 3.566 12.153 9.308 14.998 2.375 1.177 4.92 1.757 7.449 1.756 3.581 0 7.13-1.162 10.116-3.437 11.333-8.627 26.872-21.834 36.552-35.767.708-1.023 1.896-1.63 3.204-1.63h.033c11.223.054 22.498-.068 33.772-.35-.307 3.007-.465 6.044-.465 9.09v59.957c-3.944 3.025-6.845 7.449-8.07 12.876-.606 2.686-.914 5.454-.914 8.228 0 11.74 5.468 22.221 13.984 29.05v16.309c-18.208.005-33.02 14.825-33.02 33.04 0 8.819 3.437 17.112 9.677 23.353 6.24 6.24 14.534 9.677 23.354 9.677h16.62c4.142 0 7.5-3.358 7.5-7.5s-3.358-7.5-7.5-7.5h-16.62c-4.813 0-9.34-1.876-12.747-5.283s-5.284-7.934-5.284-12.747c0-9.947 8.088-18.04 18.03-18.04h7.49c4.142 0 7.5-3.358 7.5-7.5v-16.56c1.293.294 2.609.521 3.949.676 9.465 31.715 38.886 54.909 73.637 54.909h51.594c34.751 0 64.171-23.193 73.636-54.908 1.345-.155 2.667-.384 3.964-.679v16.561c0 4.142 3.358 7.5 7.5 7.5h7.48c4.812 0 9.343 1.88 12.762 5.299 3.397 3.389 5.268 7.915 5.268 12.741 0 9.942-8.088 18.03-18.03 18.03h-190.13c-4.142 0-7.5 3.358-7.5 7.5s3.358 7.5 7.5 7.5h190.13c18.213 0 33.03-14.817 33.03-33.03 0-8.839-3.435-17.135-9.667-23.354-6.241-6.241-14.53-9.68-23.342-9.685zm-289.924-416.779c.679-6.19 5.692-10.999 11.922-11.436 10.305-.726 20.774-1.312 31.12-1.741 41.078-1.727 82.736-1.142 123.816 1.741 6.221.437 11.23 5.246 11.909 11.434 4.053 37.025 4.053 74.569 0 111.586-.14 1.271-.461 2.493-.968 3.664-1.907 4.457-6.103 7.436-10.953 7.774-27.461 1.931-55.432 2.841-83.116 2.699-.036 0-.071 0-.107 0-6.217 0-12.021 3.019-15.54 8.087-8.551 12.306-22.834 24.403-33.311 32.383-.568.433-1.18.493-1.822.174-.441-.219-.968-.667-.968-1.562v-22.731c0-9.918-7.754-18.213-17.678-18.886-.686-.044-1.372-.093-2.061-.141l-.33-.023c-6.224-.436-11.237-5.264-11.918-11.482v.002c-4.048-37.015-4.046-74.544.005-111.542zm14.934 266.619c-6.244-.067-12.122 2.975-15.659 8.08-8.559 12.318-22.84 24.409-33.314 32.383-.568.432-1.181.49-1.819.174-.441-.219-.967-.666-.967-1.557v-22.73c0-9.917-7.752-18.215-17.7-18.896-.779-.048-1.558-.096-2.366-.156-6.227-.437-11.244-5.269-11.929-11.483-4.044-37.021-4.041-74.548.01-111.541.676-6.188 5.689-10.996 11.924-11.434 10.2-.723 20.667-1.308 31.113-1.738 5.585-.233 11.109-.423 16.492-.569 4.731 6.15 11.945 10.258 20.146 10.832l.326.023c.717.051 1.432.101 2.123.146 2.057.139 3.668 1.861 3.668 3.919v22.731c0 6.41 3.567 12.158 9.31 15.003 2.375 1.177 4.92 1.756 7.449 1.756 3.582 0 7.132-1.163 10.121-3.438 11.334-8.634 26.875-21.847 36.542-35.759.72-1.037 1.966-1.623 3.248-1.644 8.731.044 17.49-.027 26.252-.188.017.121.043.24.056.361 4.052 37.022 4.052 74.566.003 111.564-.145 1.287-.468 2.515-.974 3.683-1.906 4.459-6.099 7.438-10.949 7.775-27.5 1.933-55.47 2.838-83.106 2.703zm84.151 12.261c10.488-.729 19.568-7.184 23.682-16.811 1.082-2.499 1.789-5.167 2.103-7.955 1.338-12.222 2.241-24.5 2.72-36.797 3.03-.376 6.099-.589 9.185-.589h69.52c40.6 0 73.63 33.03 73.63 73.63v55.605c-.344.024-.683.031-1.03.069-1.655.185-3.228.543-4.727 1.028v-12.859c0-3.493-2.411-6.523-5.814-7.308-25.695-5.928-43.31-41.184-43.48-41.532-1.065-2.175-3.115-3.703-5.504-4.101-2.386-.395-4.823.382-6.536 2.095-15.247 15.246-49.782 29.519-92.383 38.179-16.351 3.323-32.491 5.424-44.281 5.767-4.056.118-7.282 3.439-7.282 7.497v12.259c-1.496-.483-3.066-.841-4.717-1.025-.345-.038-.683-.045-1.025-.069v-55.605c0-3.222.232-6.421.643-9.575 11.809-.454 23.596-1.081 35.296-1.903zm-44.925 92.539c0-1.665.184-3.321.545-4.924 1.347-5.964 6.735-5.673 7.801-5.555 1.489.166 6.326 1.168 6.379 7.041v18.48c0 2.011.102 3.997.254 5.969-8.706-3.014-14.979-11.291-14.979-21.011zm205.007 15.042c0 34.1-27.743 61.843-61.843 61.843h-51.594c-34.101 0-61.843-27.743-61.843-61.843v-44.539c11.54-.82 25.285-2.79 39.551-5.688 19.838-4.033 65.855-15.162 92.694-35.888 7.178 11.606 22.183 31.903 43.035 39.444zm15 0v-18.387h.005c0-5.959 4.887-6.967 6.384-7.134 1.066-.117 6.455-.411 7.801 5.554.362 1.604.545 3.261.545 4.925 0 9.724-6.277 18.003-14.99 21.014.153-1.973.255-3.96.255-5.972z"/><path d="m315.303 375.948-28.868 2.587c-2.581.231-4.777 1.973-5.591 4.433-.814 2.459-.089 5.167 1.844 6.892l21.628 19.294c1.24 1.105 2.785 1.649 4.325 1.649 1.788 0 3.569-.733 4.853-2.173 2.39-2.679 2.155-6.788-.523-9.178l-10.435-9.309 13.928-1.248c3.576-.32 6.214-3.479 5.894-7.054-.321-3.575-3.481-6.214-7.055-5.893z"/><path d="m236.552 382.968c-.813-2.46-3.01-4.201-5.591-4.433l-28.868-2.587c-3.574-.32-6.734 2.318-7.054 5.894-.32 3.575 2.318 6.734 5.894 7.054l13.928 1.248-10.435 9.309c-2.679 2.39-2.913 6.499-.523 9.178 1.284 1.439 3.064 2.173 4.853 2.173 1.54 0 3.085-.544 4.325-1.649l21.628-19.294c1.933-1.726 2.657-4.434 1.843-6.893z"/><path d="m508.542 89.098c-1.465-13.405-12.307-23.821-25.775-24.767-10.347-.733-20.962-1.326-31.545-1.762-26.244-1.104-52.807-1.283-78.951-.534-4.14.119-7.4 3.572-7.282 7.712.119 4.14 3.571 7.406 7.712 7.282 25.791-.739 51.997-.563 77.896.526 10.442.43 20.908 1.015 31.114 1.738 6.23.438 11.243 5.246 11.919 11.435 4.051 36.991 4.054 74.518.011 111.532-.686 6.221-5.703 11.054-11.955 11.492l-2.379.167c-9.903.661-17.661 8.956-17.661 18.883v22.73c0 .897-.526 1.346-.968 1.565-.636.314-1.247.254-1.819-.182-10.474-7.974-24.755-20.064-33.314-32.383-3.52-5.064-9.321-8.08-15.534-8.08-.034 0-.069 0-.103 0-27.662.143-55.633-.77-83.133-2.702-4.844-.337-9.038-3.316-10.958-7.809-.492-1.134-.814-2.362-.957-3.625-4.052-37.022-4.052-74.566-.001-111.582.683-6.192 5.692-11.004 11.91-11.441 5.36-.375 10.797-.716 16.16-1.013 4.136-.229 7.303-3.767 7.075-7.903-.229-4.136-3.78-7.305-7.903-7.075-5.436.301-10.947.646-16.382 1.027-13.453.945-24.29 11.358-25.77 24.766-4.17 38.105-4.17 76.747.003 114.876.312 2.764 1.018 5.432 2.086 7.897 4.128 9.661 13.208 16.116 23.691 16.844 27.868 1.958 56.215 2.874 84.256 2.738h.022c1.303 0 2.505.612 3.219 1.639 9.674 13.924 25.213 27.131 36.539 35.753 2.99 2.281 6.542 3.448 10.129 3.448 2.524 0 5.064-.578 7.436-1.751 5.746-2.843 9.315-8.594 9.315-15.009v-22.73c0-2.059 1.607-3.779 3.715-3.92l2.4-.168c13.463-.944 24.31-11.379 25.791-24.817 4.163-38.102 4.16-76.726-.009-114.797z"/><path d="m371.338 167.904c4.142 0 7.5-3.358 7.5-7.5v-51.858c0-4.142-3.358-7.5-7.5-7.5s-7.5 3.358-7.5 7.5v51.858c0 4.142 3.357 7.5 7.5 7.5z"/><path d="m371.338 196.808c4.142 0 7.5-3.358 7.5-7.5v-.5c0-4.142-3.358-7.5-7.5-7.5s-7.5 3.358-7.5 7.5v.5c0 4.143 3.357 7.5 7.5 7.5z"/><path d="m404.248 167.904c4.142 0 7.5-3.358 7.5-7.5v-51.858c0-4.142-3.358-7.5-7.5-7.5s-7.5 3.358-7.5 7.5v51.858c0 4.142 3.358 7.5 7.5 7.5z"/><path d="m396.748 189.308c0 4.142 3.358 7.5 7.5 7.5s7.5-3.358 7.5-7.5v-.5c0-4.142-3.358-7.5-7.5-7.5s-7.5 3.358-7.5 7.5z"/><path d="m437.158 167.904c4.142 0 7.5-3.358 7.5-7.5v-51.858c0-4.142-3.358-7.5-7.5-7.5s-7.5 3.358-7.5 7.5v51.858c0 4.142 3.358 7.5 7.5 7.5z"/><path d="m429.658 189.308c0 4.142 3.358 7.5 7.5 7.5s7.5-3.358 7.5-7.5v-.5c0-4.142-3.358-7.5-7.5-7.5s-7.5 3.358-7.5 7.5z"/><path d="m129.316 111.148h16.146l-7.048 21.495c-1.291 3.936.854 8.172 4.79 9.463.776.255 1.563.375 2.338.375 3.154 0 6.089-2.005 7.125-5.165l8.58-26.168h19.218l-7.048 21.495c-1.291 3.936.854 8.172 4.79 9.463.776.255 1.563.375 2.338.375 3.154 0 6.089-2.005 7.125-5.165l8.58-26.168h21.217c4.142 0 7.5-3.358 7.5-7.5s-3.358-7.5-7.5-7.5h-16.299l5.771-17.601h21.162c4.142 0 7.5-3.358 7.5-7.5s-3.358-7.5-7.5-7.5h-16.243l6.876-20.972c1.291-3.936-.854-8.172-4.79-9.463-3.937-1.294-8.173.854-9.463 4.79l-8.409 25.646h-19.218l6.876-20.972c1.291-3.936-.854-8.172-4.79-9.463-3.938-1.294-8.173.854-9.463 4.79l-8.409 25.646h-21.12c-4.142 0-7.5 3.358-7.5 7.5s3.358 7.5 7.5 7.5h16.202l-5.771 17.601h-21.065c-4.142 0-7.5 3.358-7.5 7.5s3.36 7.498 7.502 7.498zm42.621-32.601h19.218l-5.771 17.601h-19.218z"/><path d="m109.318 215.365c-2.929-2.929-7.678-2.929-10.606 0l-22.199 22.199-22.199-22.199c-2.929-2.929-7.678-2.929-10.606 0-2.929 2.929-2.929 7.678 0 10.606l22.199 22.199-22.199 22.199c-2.929 2.929-2.929 7.678 0 10.606 1.464 1.464 3.384 2.197 5.303 2.197s3.839-.732 5.303-2.197l22.199-22.199 22.199 22.199c1.464 1.464 3.384 2.197 5.303 2.197s3.839-.732 5.303-2.197c2.929-2.929 2.929-7.678 0-10.606l-22.199-22.199 22.199-22.199c2.929-2.928 2.929-7.677 0-10.606z"/></g></g></svg>